<?xml version="1.0" encoding="iso-8859-1"?>
<!-- Generator: Adobe Illustrator 19.0.0, SVG Export Plug-In . SVG Version: 6.00 Build 0)  -->
<svg version="1.1" id="Capa_1" xmlns="http://www.w3.org/2000/svg" xmlns:xlink="http://www.w3.org/1999/xlink" x="0px" y="0px"
	 viewBox="0 0 512 512" style="enable-background:new 0 0 512 512;" xml:space="preserve">
<path style="fill:#CCF2FE;" d="M203.2,85.333V64h-85.333v21.333L81.6,119.467c-17.067,12.8-25.6,32-27.733,53.333v317.867
	C53.867,503.467,62.4,512,75.2,512h256c12.8,0,21.333-8.533,21.333-21.333V217.6C352.533,164.267,203.2,85.333,203.2,85.333z
	 M160.533,277.333c0,12.8-8.533,21.333-21.333,21.333h-21.333c-12.8,0-21.333-8.533-21.333-21.333V192
	c0-12.8,8.533-21.333,21.333-21.333H139.2c12.8,0,21.333,8.533,21.333,21.333V277.333z"/>
<path style="fill:#B3ECFD;" d="M96.533,490.667V172.8c2.133-21.333,10.667-40.533,27.733-53.333l36.267-34.133V64h-42.667v21.333
	L81.6,119.467c-17.067,12.8-25.6,32-27.733,53.333v317.867C53.867,503.467,62.4,512,75.2,512h42.667
	C105.067,512,96.533,503.467,96.533,490.667z"/>
<path style="fill:#99E6FD;" d="M352.533,234.667H245.867c-12.8,0-21.333,8.533-21.333,21.333v149.333
	c0,12.8,8.533,21.333,21.333,21.333h106.667V234.667z"/>
<path style="fill:#34CDFA;" d="M203.2,21.333C203.2,8.533,194.667,0,181.867,0H139.2c-12.8,0-21.333,8.533-21.333,21.333v64H203.2
	V21.333z"/>
<linearGradient id="SVGID_1_" gradientUnits="userSpaceOnUse" x1="-83.5524" y1="642.4356" x2="-81.4634" y2="644.5236" gradientTransform="matrix(21.3333 0 0 -21.3333 2069.9338 13791.667)">
	<stop  offset="0" style="stop-color:#34CDFA"/>
	<stop  offset="1" style="stop-color:#E8D9F1"/>
</linearGradient>
<path style="fill:url(#SVGID_1_);" d="M314.133,25.6c6.4,14.933,19.2,27.733,34.133,34.133c4.267,2.133,4.267,8.533,0,10.667
	c-14.933,6.4-27.733,19.2-34.133,34.133c-2.133,4.267-8.533,4.267-10.667,0c-6.4-14.933-19.2-27.733-34.133-34.133
	c-4.267-2.133-4.267-8.533,0-10.667c14.933-6.4,27.733-19.2,34.133-34.133C305.6,21.333,312,21.333,314.133,25.6z"/>
<linearGradient id="SVGID_2_" gradientUnits="userSpaceOnUse" x1="-78.5451" y1="638.4424" x2="-76.4611" y2="640.5264" gradientTransform="matrix(21.3333 0 0 -21.3333 2069.9338 13791.667)">
	<stop  offset="0" style="stop-color:#34CDFA"/>
	<stop  offset="1" style="stop-color:#E8D9F1"/>
</linearGradient>
<path style="fill:url(#SVGID_2_);" d="M420.8,110.933c6.4,14.933,19.2,27.733,34.133,34.133c4.267,2.133,4.267,8.533,0,10.667
	c-14.933,6.4-27.733,19.2-34.133,34.133c-2.133,4.267-8.533,4.267-10.667,0c-6.4-14.933-19.2-27.733-34.133-34.133
	c-4.267-2.133-4.267-8.533,0-10.667c14.933-6.4,27.733-19.2,34.133-34.133C412.267,106.667,418.667,106.667,420.8,110.933z"/>
<g>
</g>
<g>
</g>
<g>
</g>
<g>
</g>
<g>
</g>
<g>
</g>
<g>
</g>
<g>
</g>
<g>
</g>
<g>
</g>
<g>
</g>
<g>
</g>
<g>
</g>
<g>
</g>
<g>
</g>
</svg>
