<?xml version="1.0" encoding="utf-8"?>
<!-- Generator: Adobe Illustrator 25.0.0, SVG Export Plug-In . SVG Version: 6.00 Build 0)  -->
<svg version="1.1" id="Capa_1" xmlns="http://www.w3.org/2000/svg" xmlns:xlink="http://www.w3.org/1999/xlink" x="0px" y="0px"
	 viewBox="0 0 800 800" style="enable-background:new 0 0 800 800;" xml:space="preserve">
<style type="text/css">
	.st0{fill:#5DBEB5;}
	.st1{fill:#77C5B7;}
	.st2{fill:#85CCE2;}
	.st3{fill:#1F97C2;}
	.st4{fill:#A3D3BB;}
	.st5{fill:#EAEAEA;}
</style>
<circle class="st0" cx="556.33" cy="175.49" r="92.14"/>
<path class="st1" d="M523.7,527.78c0-118.56-96.12-214.68-214.68-214.68S94.37,409.2,94.37,527.78
	c0,118.56,96.1,214.68,214.65,214.68S523.7,646.31,523.7,527.78z"/>
<path class="st2" d="M790.04,430.44c0-182.57-148-330.57-330.57-330.57c-182.61,0-330.61,148-330.61,330.57
	s148,330.61,330.61,330.61C642.04,761.01,790.04,613.01,790.04,430.44z"/>
<path class="st3" d="M690.8,362.46c0-187.99-152.41-340.4-340.4-340.4S10.04,174.47,10.04,362.46S162.45,702.82,350.4,702.82
	C538.39,702.82,690.8,550.45,690.8,362.46z"/>
<path class="st4" d="M574.13,44.4c0-9.83-7.98-17.8-17.81-17.8c-9.82,0-17.8,7.97-17.8,17.8c0,9.83,7.98,17.8,17.8,17.8
	C566.16,62.2,574.13,54.23,574.13,44.4z"/>
<path class="st4" d="M346.11,769.05c0-4.41-3.58-7.99-7.99-7.99c-4.41,0-7.99,3.58-7.99,7.99c0,4.41,3.58,7.99,7.99,7.99
	C342.53,777.03,346.11,773.46,346.11,769.05z"/>
<path class="st5" d="M478.42,282.44h-96v-64c0-17.66,14.34-32,32-32h32v-80h-64l0,0c-53.02,0-96,42.98-96,96v80h-64v80h64v256h96
	v-256h64L478.42,282.44z"/>
</svg>
