<?xml version="1.0" encoding="utf-8"?>
<!-- Generator: Adobe Illustrator 25.0.0, SVG Export Plug-In . SVG Version: 6.00 Build 0)  -->
<svg version="1.1" id="Capa_1" xmlns="http://www.w3.org/2000/svg" xmlns:xlink="http://www.w3.org/1999/xlink" x="0px" y="0px"
	 viewBox="0 0 800 800" style="enable-background:new 0 0 800 800;" xml:space="preserve">
<style type="text/css">
	.st0{fill:#5DBEB5;}
	.st1{fill:#77C5B7;}
	.st2{fill:#85CCE2;}
	.st3{fill:#1F97C2;}
	.st4{fill:#A3D3BB;}
	.st5{fill:#EAEAEA;}
</style>
<circle class="st0" cx="556.33" cy="175.49" r="92.14"/>
<path class="st1" d="M523.7,527.78c0-118.56-96.12-214.68-214.68-214.68S94.37,409.2,94.37,527.78
	c0,118.56,96.1,214.68,214.65,214.68S523.7,646.31,523.7,527.78z"/>
<path class="st2" d="M790.04,430.44c0-182.57-148-330.57-330.57-330.57c-182.61,0-330.61,148-330.61,330.57
	s148,330.61,330.61,330.61C642.04,761.01,790.04,613.01,790.04,430.44z"/>
<path class="st3" d="M690.8,362.46c0-187.99-152.41-340.4-340.4-340.4S10.04,174.47,10.04,362.46S162.45,702.82,350.4,702.82
	C538.39,702.82,690.8,550.45,690.8,362.46z"/>
<path class="st4" d="M574.13,44.4c0-9.83-7.98-17.8-17.81-17.8c-9.82,0-17.8,7.97-17.8,17.8c0,9.83,7.98,17.8,17.8,17.8
	C566.16,62.2,574.13,54.23,574.13,44.4z"/>
<path class="st4" d="M346.11,769.05c0-4.41-3.58-7.99-7.99-7.99c-4.41,0-7.99,3.58-7.99,7.99c0,4.41,3.58,7.99,7.99,7.99
	C342.53,777.03,346.11,773.46,346.11,769.05z"/>
<g>
	<path class="st5" d="M448.92,118.74h-197c-80.06,0-145.2,65.14-145.2,145.2v197c0,80.06,65.14,145.2,145.2,145.2h197
		c80.06,0,145.2-65.14,145.2-145.2v-197C594.12,183.87,528.98,118.74,448.92,118.74z M545.09,460.94
		c0,53.11-43.06,96.17-96.17,96.17h-197c-53.11,0-96.17-43.06-96.17-96.17v-197c0-53.11,43.06-96.17,96.17-96.17h197
		c53.11,0,96.17,43.05,96.17,96.17V460.94L545.09,460.94z"/>
	<path class="st5" d="M350.42,236.38c-69.51,0-126.06,56.55-126.06,126.06s56.55,126.06,126.06,126.06s126.06-56.55,126.06-126.06
		S419.93,236.38,350.42,236.38z M350.42,439.46c-42.54,0-77.03-34.49-77.03-77.03s34.49-77.03,77.03-77.03
		c42.54,0,77.03,34.49,77.03,77.03C427.45,404.98,392.96,439.46,350.42,439.46z"/>
	<circle class="st5" cx="476.72" cy="237.32" r="30.21"/>
</g>
</svg>
