<?xml version="1.0" encoding="utf-8"?>
<!-- Generator: Adobe Illustrator 25.0.0, SVG Export Plug-In . SVG Version: 6.00 Build 0)  -->
<svg version="1.1" id="Capa_1" xmlns="http://www.w3.org/2000/svg" xmlns:xlink="http://www.w3.org/1999/xlink" x="0px" y="0px"
	 viewBox="0 0 800 800" style="enable-background:new 0 0 800 800;" xml:space="preserve">
<style type="text/css">
	.st0{fill:#76C4B7;}
	.st1{fill:#A3D3BA;}
	.st2{fill:#90D2E8;}
	.st3{fill:#5CBDB4;}
	.st4{fill:#60BFB8;}
	.st5{fill:#2588B5;}
	.st6{fill:#80CBDE;}
	.st7{fill:#46BCD8;}
	.st8{fill:#59BBE3;}
	.st9{fill:none;stroke:#47BCD5;stroke-width:0.4977;stroke-miterlimit:10;}
	.st10{fill:#82CDE3;}
	.st11{fill:#50C0E2;}
	.st12{fill:#58C2E7;}
	.st13{fill:#83CCE2;}
	.st14{fill:#2494C1;}
	.st15{fill:#86CCD4;}
	.st16{fill:#15AAD3;}
	.st17{fill:#2096C1;}
	.st18{fill:#4CBFDE;}
	.st19{fill:#46BAC9;}
	.st20{fill:#7DCADE;}
	.st21{fill:#D5ECF4;}
	.st22{fill:#064780;}
	.st23{fill:#FFFFFF;}
</style>
<path class="st0" d="M638.66,370.08c0-43.28-35.09-78.36-78.37-78.36c-43.28,0-78.37,35.09-78.37,78.36
	c0,43.28,35.09,78.36,78.37,78.36C603.58,448.44,638.66,413.36,638.66,370.08z"/>
<path class="st1" d="M636.66,473.28c0-36.66-29.71-66.37-66.37-66.37c-36.65,0-66.37,29.71-66.37,66.37
	c0,36.65,29.72,66.36,66.37,66.36C606.94,539.64,636.66,509.92,636.66,473.28z"/>
<path class="st2" d="M574.63,539.64c0-47.42-38.45-85.86-85.86-85.86c-47.42,0-85.86,38.44-85.86,85.86
	c0,47.42,38.44,85.86,85.86,85.86C536.18,625.5,574.63,587.06,574.63,539.64z"/>
<path class="st0" d="M460.1,584.73c0-42.12-34.15-76.27-76.27-76.27c-42.12,0-76.26,34.14-76.26,76.27
	c0,42.12,34.14,76.27,76.26,76.27C425.95,661,460.1,626.84,460.1,584.73z"/>
<path class="st1" d="M518.06,624.91c0-10.61-8.61-19.21-19.22-19.21c-10.6,0-19.21,8.6-19.21,19.21c0,10.61,8.61,19.21,19.21,19.21
	C509.46,644.12,518.06,635.52,518.06,624.91z"/>
<circle class="st3" cx="587.76" cy="553.99" r="31.99"/>
<path class="st4" d="M662.92,527.34c0-5.89-4.77-10.66-10.66-10.66c-5.89,0-10.66,4.78-10.66,10.66c0,5.89,4.77,10.66,10.66,10.66
	C658.15,538,662.92,533.22,662.92,527.34z"/>
<path class="st5" d="M665.05,424.44c0-7.07-5.73-12.79-12.79-12.79c-7.06,0-12.79,5.73-12.79,12.79c0,7.06,5.73,12.79,12.79,12.79
	C659.33,437.23,665.05,431.5,665.05,424.44z"/>
<path class="st6" d="M674.65,335.96c0-5.3-4.3-9.6-9.6-9.6s-9.59,4.3-9.59,9.6c0,5.3,4.29,9.59,9.59,9.59
	S674.65,341.26,674.65,335.96z"/>
<path class="st7" d="M641.6,290.11c0-8.83-7.16-15.99-15.99-15.99c-8.83,0-15.99,7.16-15.99,15.99c0,8.83,7.16,15.99,15.99,15.99
	C634.44,306.11,641.6,298.94,641.6,290.11z"/>
<path class="st4" d="M356.43,539.64c0-44.18-35.82-80.01-80.01-80.01c-44.19,0-80.01,35.82-80.01,80.01
	c0,44.19,35.82,80.01,80.01,80.01C320.61,619.65,356.43,583.83,356.43,539.64z"/>
<path class="st0" d="M296.81,621.96c0-7.51-6.09-13.6-13.59-13.6c-7.51,0-13.59,6.08-13.59,13.6c0,7.51,6.08,13.59,13.59,13.59
	C290.72,635.55,296.81,629.46,296.81,621.96z"/>
<path class="st8" d="M232.04,621.96c0-4.86-3.94-8.8-8.8-8.8c-4.86,0-8.79,3.94-8.79,8.8c0,4.85,3.94,8.8,8.79,8.8
	C228.1,630.75,232.04,626.81,232.04,621.96z"/>
<path class="st1" d="M207.95,539.64c0-16.28-13.2-29.48-29.48-29.48c-16.28,0-29.48,13.2-29.48,29.48
	c0,16.28,13.2,29.48,29.48,29.48C194.75,569.12,207.95,555.92,207.95,539.64z"/>
<path class="st0" d="M305.21,453.78c0-47.48-38.48-85.96-85.96-85.96c-47.48,0-85.96,38.48-85.96,85.96
	c0,47.48,38.48,85.96,85.96,85.96C266.72,539.74,305.21,501.26,305.21,453.78z"/>
<path class="st9" d="M131.29,490.42c0-5.3-4.3-9.6-9.6-9.6s-9.6,4.3-9.6,9.6c0,5.3,4.3,9.6,9.6,9.6S131.29,495.71,131.29,490.42z"/>
<path class="st10" d="M219.25,371.67c0-23.19-18.8-41.98-41.98-41.98c-23.19,0-41.98,18.8-41.98,41.98
	c0,23.19,18.8,41.98,41.98,41.98C200.45,413.65,219.25,394.86,219.25,371.67z"/>
<path class="st11" d="M148.74,383.27c0-8.53-6.92-15.45-15.45-15.45c-8.53,0-15.45,6.92-15.45,15.45c0,8.53,6.92,15.45,15.45,15.45
	C141.82,398.72,148.74,391.8,148.74,383.27z"/>
<path class="st12" d="M138.89,303.71c0-5.96-4.84-10.8-10.8-10.8c-5.97,0-10.8,4.83-10.8,10.8c0,5.96,4.83,10.79,10.8,10.79
	C134.05,314.5,138.89,309.67,138.89,303.71z"/>
<path class="st13" d="M316.4,325.83c0-41.51-33.65-75.16-75.16-75.16c-41.52,0-75.17,33.65-75.17,75.16
	c0,41.51,33.65,75.17,75.17,75.17C282.75,400.99,316.4,367.34,316.4,325.83z"/>
<circle class="st14" cx="198.21" cy="264.21" r="29.54"/>
<circle class="st15" cx="235.91" cy="188.82" r="10.66"/>
<path class="st14" d="M385.7,148.31c0-5.64-4.57-10.22-10.22-10.22c-5.64,0-10.22,4.58-10.22,10.22c0,5.64,4.58,10.22,10.22,10.22
	C381.13,158.53,385.7,153.95,385.7,148.31z"/>
<path class="st14" d="M442.75,176.03c0-8.25-6.68-14.93-14.93-14.93c-8.24,0-14.93,6.68-14.93,14.93c0,8.24,6.68,14.92,14.93,14.92
	C436.06,190.96,442.75,184.27,442.75,176.03z"/>
<path class="st16" d="M341.99,283.18c0-29.74-24.11-53.84-53.84-53.84c-29.74,0-53.84,24.11-53.84,53.84
	c0,29.73,24.1,53.84,53.84,53.84C317.88,337.02,341.99,312.92,341.99,283.18z"/>
<path class="st17" d="M451.28,267.2c0-45.34-36.76-82.1-82.1-82.1c-45.34,0-82.09,36.76-82.09,82.1c0,45.34,36.76,82.09,82.09,82.09
	C414.52,349.29,451.28,312.54,451.28,267.2z"/>
<path class="st18" d="M339.86,190.96c0-12.95-10.5-23.45-23.45-23.45c-12.95,0-23.46,10.5-23.46,23.45
	c0,12.95,10.5,23.46,23.46,23.46C329.36,214.41,339.86,203.91,339.86,190.96z"/>
<path class="st2" d="M551.51,295.71c0-45.78-37.12-82.89-82.9-82.89c-45.78,0-82.9,37.11-82.9,82.89c0,45.78,37.12,82.89,82.9,82.89
	C514.39,378.61,551.51,341.49,551.51,295.71z"/>
<path class="st19" d="M501.29,176.03c0-5.25-4.26-9.5-9.5-9.5c-5.25,0-9.5,4.26-9.5,9.5c0,5.24,4.25,9.5,9.5,9.5
	C497.04,185.53,501.29,181.28,501.29,176.03z"/>
<path class="st19" d="M546.17,204.29c0-5.3-4.3-9.6-9.6-9.6c-5.3,0-9.6,4.3-9.6,9.6c0,5.3,4.3,9.59,9.6,9.59
	C541.87,213.88,546.17,209.58,546.17,204.29z"/>
<ellipse transform="matrix(0.9999 -0.0128 0.0128 0.9999 -3.5236 7.1935)" class="st20" cx="559.23" cy="278.39" rx="43.99" ry="43.98"/>
<path class="st21" d="M554.16,422.45c0-89.72-72.74-162.45-162.46-162.45c-89.72,0-162.45,72.73-162.45,162.45
	c0,89.72,72.73,162.45,162.45,162.45C481.43,584.9,554.16,512.17,554.16,422.45z"/>
<g>
	<path class="st22" d="M84.95,469.39l3.58-23.2c1.92-12.43-2.67-16.9-10.57-15.37c-7.62,1.47-14.78,8.48-16.78,21.46l-14.02,90.88
		c-2.05,13.26,3.32,17.85,10.67,16.42c8.17-1.58,14.46-8.16,16.42-20.86l2.9-18.79l6.77-17.08l27.26,10.49l-3.11,20.16
		c-5.24,33.97-29.26,54.43-55.12,59.44c-26.68,5.17-46.76-6.76-41.3-42.11l14.32-92.81c5.41-35.08,26.71-64.96,53.39-70.12
		c26.13-5.06,48.65,16.34,43.45,50.03l8.56,13.21l-12.4,11.65L84.95,469.39z"/>
	<path class="st22" d="M184.39,489l-29.94,5.79l0.42,65.96l-12.4,11.65l-34.84,6.75l29.2-189.2l6.76-17.08l28.08,10.33l-12.15,78.71
		l29.94-5.79l12.15-78.71l6.76-17.08l28.08,10.33l-16.81,177.55l-12.39,11.66l-34.84,6.74L184.39,489z"/>
	<path class="st22" d="M245.7,368.87l6.76-17.08l28.08,10.33l-24.17,156.61l48.46-9.38l7.37,20.94l-12.4,11.65l-83.3,16.13
		L245.7,368.87z"/>
	<path class="st22" d="M306.21,493.55l14.24-92.26c5.41-35.08,31.38-56.18,58.86-61.51c27.22-5.27,48.3,7,42.93,41.8l-14.24,92.25
		c-5.41,35.08-31.69,56.51-58.91,61.79C321.61,540.94,300.75,528.9,306.21,493.55z M372.8,479.58l13.85-89.76
		c2.09-13.54-4.05-18.24-12.49-16.61c-8.44,1.64-16.45,9.08-18.54,22.62l-13.85,89.76c-2.13,13.81,3.78,18.29,12.49,16.61
		C362.7,500.56,370.66,493.39,372.8,479.58z"/>
	<path class="st22" d="M454.3,447.72l-0.82,0.16l2.17,54.64l-12.4,11.65l-34.57,6.69l29.2-189.2l6.77-17.08l38.42,8.33
		c26.41-5.11,44.52,5.85,39.32,39.55l-4.09,26.51c-3.15,20.44-13.76,36.16-28.48,45.98l33.23,54.52l-13.64,11.89l-39.48,7.64
		L454.3,447.72z M467.42,357.56l-9.08,58.83l7.63-1.47c9.52-1.85,15.42-7.54,17.25-19.42l3.88-25.13
		c1.87-12.15-2.8-16.07-12.87-14.12L467.42,357.56z"/>
	<path class="st22" d="M509.13,501.42l29.2-189.2l6.76-17.08l28.08,10.33l-16.8,177.55l-12.41,11.65L509.13,501.42z"/>
	<path class="st22" d="M602.58,376.69l-4.56,98.28l-12.4,11.65l-31.58,6.11l29.2-189.2l6.77-17.08l28.62,10.23l16.77,101.8
		l16.71-108.28l6.76-17.08l24.54,11.02l-16.8,177.55l-12.4,11.66l-33.48,6.48L602.58,376.69z"/>
	<path class="st22" d="M693.21,282.23l6.76-17.07l77.35,0.79l7.45,20.38l-12.4,11.66l-49.26,9.54l-6.95,45.02l43.55-8.43l7.37,20.94
		l-12.4,11.66l-43.55,8.43l-7.33,47.5l50.36-9.74l7.46,20.38l-12.4,11.65l-85.19,16.49L693.21,282.23z"/>
</g>
<path class="st23" d="M120.76,498.98l-34.03,6.59l-2.9,18.79c-1.96,12.7-8.26,19.28-16.42,20.86c-7.35,1.42-12.71-3.17-10.67-16.43
	l14.03-90.88c2-12.98,9.16-19.99,16.78-21.46c7.89-1.53,12.48,2.94,10.57,15.37l-3.58,23.2l34.03-6.59l3.84-24.86
	c5.2-33.7-13.52-45.88-39.65-40.82c-26.68,5.17-51.78,25.83-57.2,60.91l-14.32,92.81c-5.45,35.35,14.62,47.28,41.3,42.11
	c25.86-5.01,49.88-25.47,55.12-59.45L120.76,498.98z M211.18,363.04l-12.15,78.72l-29.94,5.8l12.15-78.72l-34.84,6.74l-29.2,189.21
	l34.84-6.75l11.98-77.61l29.94-5.8l-11.97,77.62l34.84-6.75l29.2-189.2L211.18,363.04z M290.12,347.76l-34.84,6.75l-29.2,189.2
	l83.29-16.13l5.03-32.59l-48.45,9.38L290.12,347.76z M388.9,325.42c-27.49,5.33-53.46,26.43-58.87,61.51l-14.24,92.26
	c-5.46,35.35,15.4,47.39,42.89,42.07c27.22-5.27,53.5-26.7,58.92-61.79l14.24-92.25C437.2,332.41,416.12,320.15,388.9,325.42z
	 M396.23,375.45l-13.85,89.76c-2.13,13.81-10.1,20.98-18.54,22.61c-8.71,1.69-14.62-2.8-12.49-16.61l13.86-89.76
	c2.09-13.54,10.1-20.98,18.54-22.62C392.18,357.21,398.32,361.91,396.23,375.45z M547.9,297.85l-29.1,188.56l-19.41-65.82
	c14.72-9.82,25.33-25.54,28.49-45.98l4.09-26.52c5.2-33.7-12.91-44.66-39.32-39.55l-45.18,8.75l-29.2,189.2l34.56-6.69l10.23-66.3
	l0.82-0.16l15.63,61.28l39.2-7.59v0l34.84-6.74l29.2-189.2L547.9,297.85z M496.68,356.01l-3.88,25.13
	c-1.83,11.88-7.73,17.57-17.26,19.42l-7.62,1.48L477,343.2l6.81-1.32C493.87,339.93,498.55,343.85,496.68,356.01z M661.68,275.82
	L644.97,384.1L628.2,282.3l-35.38,6.85l-29.2,189.2l31.57-6.11l16.97-109.93l18.15,103.13l33.48-6.49l29.2-189.2L661.68,275.82z
	 M781.95,283.62l4.95-32.04l-84.11,16.28l-29.2,189.2l85.2-16.49l4.94-32.04l-50.35,9.75l7.33-47.51l43.55-8.43l5.03-32.59
	l-43.55,8.43l6.95-45.02L781.95,283.62z"/>
<path class="st22" d="M51.24,582.94c-11.24,0-20.31-3.65-26.23-10.54c-7.06-8.24-9.4-20.49-6.94-36.4l14.32-92.81
	c6.1-39.51,34.87-58.74,59.75-63.56c3.97-0.77,7.8-1.16,11.4-1.16c10.81,0,19.54,3.52,25.26,10.19c6.88,8.02,9.15,19.94,6.77,35.42
	l-4.18,27.09l-40.7,7.88l4.27-27.7c1.06-6.89-0.24-9.63-1.12-10.65c-0.28-0.33-1.13-1.32-3.49-1.32c-0.67,0-1.4,0.08-2.19,0.24
	c-7.31,1.41-12.63,8.45-14.23,18.81L59.9,529.29c-0.83,5.41-0.35,9.5,1.36,11.49c1.17,1.36,3.05,1.78,5.54,1.3
	c7.46-1.44,12.25-7.74,13.87-18.21l3.25-21.01l40.69-7.88l-3.81,24.65c-4.92,31.89-23.32,59.52-56.6,70.1
	C60.19,591.01,54.99,582.94,51.24,582.94z M103.53,384.85c-3.18,0-6.61,0.35-10.18,1.04c-22.75,4.41-49.05,22.02-54.64,58.26
	l-14.32,92.82c-2.16,13.98-0.31,24.51,5.48,31.26c4.66,5.44,12.05,8.31,21.37,8.31c3.35,0,6.94-0.37,10.68-1.09
	c21.83-4.22,47.1-21.37,52.57-56.79l2.42-15.67l-27.35,5.29l-2.56,16.56c-2.75,17.8-13.07,22.38-18.98,23.52
	c-4.8,0.93-8.93-0.3-11.61-3.41c-3.03-3.54-3.98-9.14-2.83-16.63l14.03-90.88c2.39-15.48,11.55-22.61,19.33-24.11
	c5.03-0.97,9.14,0.16,11.75,3.2c2.82,3.3,3.69,8.61,2.58,15.8l-2.89,18.71l27.35-5.29l3.49-22.63c2.06-13.36,0.23-23.83-5.3-30.28
	C119.46,387.61,112.41,384.85,103.53,384.85z"/>
<path class="st22" d="M113.35,568.79l30.23-195.92l41.51-8.03l-12.15,78.72l23.27-4.51l12.15-78.72l41.51-8.04l-30.23,195.92
	l-41.51,8.04l11.98-77.62l-23.27,4.51l-11.98,77.61L113.35,568.79z M149.22,378.3l-28.16,182.49l28.17-5.45l11.98-77.61l36.61-7.09
	l-11.98,77.62l28.17-5.45l28.16-182.49L214,365.75l-12.15,78.72l-36.61,7.09l12.15-78.72L149.22,378.3z"/>
<path class="st22" d="M222.23,547.71l30.23-195.92l41.51-8.04l-24.16,156.61l48.45-9.38l-6.07,39.31L222.23,547.71z M258.1,357.22
	l-28.16,182.49l76.62-14.84l3.99-25.87l-48.45,9.38l24.17-156.61L258.1,357.22z"/>
<path class="st22" d="M346.86,525.65c-11.69,0-21.1-3.76-27.2-10.88c-7.09-8.26-9.46-20.4-7.03-36.08l14.24-92.26
	c5.05-32.73,29.16-57.91,61.43-64.16c4.21-0.82,8.31-1.23,12.17-1.23c11.77,0,21.26,3.81,27.44,11.02
	c7.08,8.26,9.47,20.25,7.1,35.64l-14.24,92.25c-6.17,39.97-39.13,66.18-64.94,74.02C351.6,535.25,350.78,525.65,346.86,525.65z
	 M400.46,327.45c-3.45,0-7.13,0.38-10.95,1.11c-22.46,4.35-50.69,22.37-56.32,58.86l-14.24,92.25c-2.12,13.75-0.25,24.17,5.57,30.95
	c4.85,5.66,12.58,8.64,22.34,8.64c3.52,0,7.28-0.39,11.21-1.15c22.46-4.35,50.7-22.44,56.36-59.13l14.24-92.26
	c2.05-13.27,0.1-23.81-5.62-30.5C418.11,330.49,410.3,327.45,400.46,327.45z M360.54,491.37L360.54,491.37c-3.96,0-7.25-1.38-9.49-4
	c-3.06-3.56-4.02-9.16-2.87-16.64l13.86-89.76c2.48-16.1,12.52-23.61,21.09-25.27c5.57-1.08,10.3,0.26,13.28,3.73
	c3.11,3.62,4.11,9.18,2.98,16.5l-13.85,89.76c-2.11,13.67-9.99,23.12-21.1,25.27C363.09,491.23,361.77,491.37,360.54,491.37z
	 M386.81,361.73c-0.77,0-1.59,0.08-2.45,0.25c-6.43,1.24-14.01,7.14-15.99,19.96l-13.86,89.76c-0.84,5.47-0.36,9.44,1.4,11.5
	c1.02,1.19,2.53,1.76,4.63,1.77l0,0c0.83,0,1.73-0.1,2.69-0.28c8.33-1.61,14.31-9.08,15.99-19.97l13.86-89.76
	c0.81-5.25,0.27-9.28-1.51-11.36C390.49,362.36,388.89,361.73,386.81,361.73z"/>
<path class="st22" d="M414.41,510.51l30.24-195.92l47.39-9.18c16.32-3.16,29.31-0.16,36.71,8.47c6.6,7.69,8.74,19.37,6.38,34.71
	l-4.09,26.51c-3,19.46-12.89,35.99-27.92,46.81l19.93,67.56l-45.88,8.88l-13-50.97l-8.51,55.14L414.41,510.51z M450.28,320.01
	L422.11,502.5l27.9-5.4l10.23-66.29l5.99-1.15l15.63,61.28l33.05-6.4l-19.26-65.29l1.96-1.31c14.62-9.75,24.24-25.31,27.1-43.8
	l4.09-26.52c2.07-13.41,0.42-23.35-4.9-29.57c-4.26-4.97-10.89-7.49-19.69-7.49c-3.38,0-7.06,0.38-10.96,1.14L450.28,320.01z
	 M464.06,406.04l10.12-65.55l9.02-1.74c6.66-1.29,11.35-0.22,14.23,3.13c2.66,3.11,3.46,7.89,2.42,14.62l-3.88,25.13
	c-1.95,12.65-8.43,19.87-19.82,22.07L464.06,406.04z M479.81,345.91l-8.04,52.12l3.16-0.61c8.64-1.67,13.17-6.84,14.71-16.77
	l3.88-25.13c0.9-5.87-0.02-8.39-0.95-9.48c-0.3-0.36-1.23-1.44-4.32-1.44c-1.11,0-2.4,0.14-3.83,0.42L479.81,345.91z"/>
<path class="st22" d="M514.85,491.06l30.24-195.92l41.52-8.04l-30.23,195.92L514.85,491.06z M550.72,300.56l-28.16,182.49
	l28.17-5.45l28.16-182.49L550.72,300.56z"/>
<path class="st22" d="M559.77,482.36L590,286.44l40.82-7.91l14.05,85.26l13.99-90.68l37.97-7.35l-30.23,195.92l-38.89,7.53
	l-15.36-87.26l-14.35,93.01L559.77,482.36z M595.64,291.87l-28.16,182.49l24.9-4.82l19.58-126.85l20.94,119l28.08-5.44l28.16-182.49
	l-24.63,4.77l-19.43,125.87l-19.5-118.34L595.64,291.87z"/>
<path class="st22" d="M669.73,461.07l30.23-195.92l90.78-17.58l-5.98,38.76l-49.26,9.54l-5.92,38.31l43.55-8.43l-6.06,39.31
	l-43.55,8.43l-6.3,40.79l50.35-9.75l-5.98,38.75L669.73,461.07z M705.6,270.58l-28.16,182.49l78.52-15.2l3.9-25.32l-50.35,9.75
	l8.37-54.23l43.55-8.43l3.99-25.88l-43.55,8.43l7.99-51.73l49.26-9.54l3.91-25.32L705.6,270.58z"/>
</svg>
