<?xml version="1.0" encoding="utf-8"?>
<!-- Generator: Adobe Illustrator 25.0.0, SVG Export Plug-In . SVG Version: 6.00 Build 0)  -->
<svg version="1.1" id="Capa_1" xmlns="http://www.w3.org/2000/svg" xmlns:xlink="http://www.w3.org/1999/xlink" x="0px" y="0px"
	 viewBox="0 0 800 800" style="enable-background:new 0 0 800 800;" xml:space="preserve">
<style type="text/css">
	.st0{fill:#59BBE3;}
	.st1{fill:#76C4B7;}
	.st2{fill:#15AAD3;}
	.st3{fill:#90D2E8;}
	.st4{fill:#5CBDB4;}
	.st5{fill:#A9CF84;}
	.st6{fill:#49B172;}
	.st7{fill:#029A87;}
	.st8{fill:#FEF5F5;}
	.st9{fill:#E2ECF1;}
</style>
<g>
	<g>
		<path class="st0" d="M47.08,342.8c0,82.75,67.09,149.84,149.84,149.84c82.7,0,149.79-67.08,149.79-149.84
			c0-82.69-67.09-149.84-149.79-149.84C114.17,192.97,47.08,260.11,47.08,342.8z"/>
		<path class="st1" d="M656.59,420.91c0-139.24-112.89-252.12-252.12-252.12c-139.23,0-252.11,112.87-252.11,252.12
			c0,139.22,112.87,252.12,252.11,252.12C543.69,673.03,656.59,560.13,656.59,420.91z"/>
		<path class="st2" d="M440.85,762.74c67.06-47.39,83-140.17,35.62-207.21c-47.39-67.06-140.15-83-207.22-35.61
			c-67.05,47.38-83,140.15-35.61,207.21C281.02,794.17,373.8,810.12,440.85,762.74z"/>
		<path class="st3" d="M390.73,398.19c87.17-19.7,141.86-106.35,122.15-193.52c-19.7-87.17-106.34-141.86-193.5-122.16
			c-87.17,19.7-141.86,106.34-122.16,193.51C216.92,363.18,303.56,417.89,390.73,398.19z"/>
		<circle class="st4" cx="196.89" cy="492.64" r="105.74"/>
		<path class="st3" d="M517.54,511.81c0-118.68-96.23-214.9-214.92-214.9c-118.68,0-214.9,96.21-214.9,214.9
			c0,118.68,96.22,214.89,214.9,214.89C421.31,726.7,517.54,630.49,517.54,511.81z"/>
		<path class="st0" d="M374.14,640.6c0,48.91,39.65,88.56,88.56,88.56c48.88,0,88.53-39.65,88.53-88.56
			c0-48.88-39.65-88.56-88.53-88.56C413.8,552.04,374.14,591.73,374.14,640.6z"/>
		<path class="st0" d="M788.35,525.69c0-82.75-67.09-149.84-149.84-149.84c-82.7,0-149.79,67.08-149.79,149.84
			c0,82.69,67.09,149.84,149.79,149.84C721.26,675.52,788.35,608.38,788.35,525.69z"/>
		<path class="st2" d="M394.59,105.75c-67.06,47.39-83,140.17-35.62,207.21c47.39,67.06,140.15,83,207.22,35.61
			c67.05-47.38,83-140.15,35.61-207.21C554.42,74.32,461.63,58.37,394.59,105.75z"/>
		<path class="st3" d="M444.71,470.3C357.54,490,302.85,576.65,322.55,663.82c19.7,87.17,106.34,141.86,193.5,122.16
			c87.17-19.7,141.86-106.34,122.16-193.51C618.51,505.31,531.87,450.6,444.71,470.3z"/>
		<circle class="st4" cx="638.54" cy="375.85" r="105.74"/>
		<path class="st3" d="M317.89,356.68c0,118.68,96.23,214.9,214.92,214.9c118.68,0,214.9-96.21,214.9-214.9
			c0-118.68-96.22-214.89-214.9-214.89C414.12,141.79,317.89,238,317.89,356.68z"/>
		<path class="st0" d="M461.29,227.89c0-48.91-39.65-88.56-88.56-88.56c-48.88,0-88.53,39.65-88.53,88.56
			c0,48.88,39.65,88.56,88.53,88.56C421.64,316.45,461.29,276.77,461.29,227.89z"/>
		<path class="st0" d="M24.53,461.48c-11.1,5.12-15.96,18.27-10.84,29.37c5.11,11.1,18.27,15.95,29.37,10.83
			c11.1-5.11,15.96-18.27,10.84-29.37C48.78,461.21,35.62,456.36,24.53,461.48z"/>
		<path class="st3" d="M654.17,729.16c0,12.85,10.42,23.27,23.27,23.27c12.85,0,23.27-10.42,23.27-23.27
			c0-12.85-10.42-23.27-23.27-23.27C664.59,705.89,654.17,716.31,654.17,729.16z"/>
		<path class="st0" d="M185.49,43.13c0-18.3-14.83-33.13-33.13-33.13c-18.29,0-33.12,14.83-33.12,33.13
			c0,18.28,14.83,33.13,33.12,33.13C170.65,76.26,185.49,61.42,185.49,43.13z"/>
	</g>
	<g>
		<circle class="st5" cx="400" cy="315.78" r="142.93"/>
		<path class="st6" d="M400,172.84v285.87c78.94,0,142.93-63.99,142.93-142.93S478.94,172.84,400,172.84L400,172.84z"/>
		<path class="st6" d="M557.07,315.78c0-86.61-70.46-157.07-157.07-157.07c-86.61,0-157.07,70.46-157.07,157.07
			c0,71.6,48.16,132.16,113.79,151v54.84H306.3l93.69,119.67l93.69-119.67h-50.41v-54.83C508.9,447.96,557.07,387.39,557.07,315.78
			L557.07,315.78z M271.2,315.78c0-71.02,57.78-128.8,128.8-128.8c71.02,0,128.8,57.78,128.8,128.8c0,71.02-57.78,128.8-128.8,128.8
			C328.98,444.58,271.2,386.8,271.2,315.78L271.2,315.78z"/>
		<path class="st7" d="M557.07,315.78c0-86.61-70.46-157.07-157.07-157.07v28.27c71.02,0,128.8,57.78,128.8,128.8
			c0,71.02-57.78,128.8-128.8,128.8v196.7l93.68-119.66h-50.41v-54.83C508.9,447.96,557.07,387.39,557.07,315.78L557.07,315.78z"/>
		<path class="st8" d="M418.42,300.59h-29.65c-6.5,0-11.79-5.29-11.79-11.79c0-6.5,5.29-11.79,11.79-11.79h50.05v-28.27h-24.72
			v-18.33h-28.27v18.45c-20.72,1.51-37.11,18.84-37.11,39.94c0,22.09,17.97,40.06,40.06,40.06h29.65c7.08,0,12.84,5.76,12.84,12.84
			c0,7.08-5.76,12.84-12.84,12.84h-63.88v28.27h31.29v18.33h28.27v-18.33h4.32c22.67,0,41.11-18.44,41.11-41.11
			S441.09,300.59,418.42,300.59L418.42,300.59z"/>
		<g>
			<path class="st9" d="M438.83,277.02v-28.27h-24.72v-18.33H400v46.6H438.83z"/>
			<path class="st9" d="M414.11,382.81h4.32c22.67,0,41.11-18.44,41.11-41.11s-18.44-41.11-41.11-41.11H400v28.27h18.42
				c7.08,0,12.84,5.76,12.84,12.84c0,7.08-5.76,12.84-12.84,12.84H400v46.6h14.11L414.11,382.81L414.11,382.81z"/>
		</g>
	</g>
</g>
</svg>
