<?xml version="1.0" encoding="utf-8"?>
<!-- Generator: Adobe Illustrator 25.0.0, SVG Export Plug-In . SVG Version: 6.00 Build 0)  -->
<svg version="1.1" id="Capa_1" xmlns="http://www.w3.org/2000/svg" xmlns:xlink="http://www.w3.org/1999/xlink" x="0px" y="0px"
	 viewBox="0 0 800 800" style="enable-background:new 0 0 800 800;" xml:space="preserve">
<style type="text/css">
	.st0{fill:#5DBEB5;}
	.st1{fill:#77C5B7;}
	.st2{fill:#85CCE2;}
	.st3{fill:#1F97C2;}
	.st4{fill:#A3D3BB;}
	.st5{fill:#EAEAEA;}
</style>
<circle class="st0" cx="556.33" cy="175.49" r="92.14"/>
<path class="st1" d="M523.7,527.78c0-118.56-96.12-214.68-214.68-214.68S94.37,409.2,94.37,527.78
	c0,118.56,96.1,214.68,214.65,214.68S523.7,646.31,523.7,527.78z"/>
<path class="st2" d="M790.04,430.44c0-182.57-148-330.57-330.57-330.57c-182.61,0-330.61,148-330.61,330.57
	s148,330.61,330.61,330.61C642.04,761.01,790.04,613.01,790.04,430.44z"/>
<path class="st3" d="M690.8,362.46c0-187.99-152.41-340.4-340.4-340.4S10.04,174.47,10.04,362.46S162.45,702.82,350.4,702.82
	C538.39,702.82,690.8,550.45,690.8,362.46z"/>
<path class="st4" d="M574.13,44.4c0-9.83-7.98-17.8-17.81-17.8c-9.82,0-17.8,7.97-17.8,17.8c0,9.83,7.98,17.8,17.8,17.8
	C566.16,62.2,574.13,54.23,574.13,44.4z"/>
<path class="st4" d="M346.11,769.05c0-4.41-3.58-7.99-7.99-7.99c-4.41,0-7.99,3.58-7.99,7.99c0,4.41,3.58,7.99,7.99,7.99
	C342.53,777.03,346.11,773.46,346.11,769.05z"/>
<path class="st5" d="M350.47,128.22h-0.11c-64.57,0-123.11,26.26-165.5,68.67c-42.4,42.41-68.65,100.96-68.65,165.54
	c0,51.23,16.51,98.72,44.59,137.28l-29.19,87.01l90.03-28.77c37.03,24.53,81.21,38.7,128.84,38.7
	c129.15,0,234.16-105.07,234.16-234.21S479.62,128.22,350.47,128.22z M486.76,458.96c-5.64,15.96-28.07,29.19-45.96,33.05
	c-12.23,2.61-28.22,4.68-82.03-17.62c-68.83-28.52-113.15-98.46-116.61-103c-3.3-4.54-27.81-37.03-27.81-70.64
	c0-33.61,17.07-49.98,23.95-57.01c5.65-5.76,14.99-8.4,23.95-8.4c2.89,0,5.5,0.15,7.84,0.27c6.88,0.29,10.34,0.7,14.88,11.56
	c5.64,13.61,19.4,47.22,21.05,50.68c1.67,3.45,3.33,8.13,0.99,12.67c-2.2,4.68-4.13,6.77-7.58,10.75
	c-3.46,3.98-6.73,7.03-10.19,11.3c-3.17,3.71-6.73,7.7-2.75,14.58c3.98,6.73,17.74,29.18,38,47.22
	c26.14,23.27,47.34,30.71,54.92,33.88c5.65,2.34,12.39,1.78,16.51-2.61c5.24-5.65,11.71-15.02,18.3-24.24
	c4.68-6.61,10.59-7.44,16.81-5.1c6.32,2.2,39.78,18.74,46.66,22.17c6.88,3.45,11.42,5.1,13.09,7.99
	C492.41,429.36,492.41,442.97,486.76,458.96z"/>
</svg>
